# xmcd
#
# Track frame offsets:
#	150
#	18327
#	31502
#	44362
#	63006
#	75709
#	88393
#	105523
#	118915
#	133080
#	149399
#	160711
#	173986
#	187559
#	219094
#	234440
#	250076
#
# Disc length: 3515 seconds
#
# Revision: 1
# Processed by: cddbd v1.5.2PL0 Copyright (c) Steve Scherf et al.
# Submitted via: audiograbber 1.83.01
#
DISCID=d20db911
DTITLE=Various Artist - Motown 50 - Yesterday>Today>Forever
DYEAR=2009
DGENRE=R&B
TTITLE0=Lionel Richie - Say You, Say Me
TTITLE1=Diana Ross and Marvin Gaye - You Are Everything
TTITLE2=Barbara McNair - Here I Am Baby
TTITLE3=Michael Jackson - One Day In Your Life
TTITLE4=Mary Wells - My Guy
TTITLE5=Stevie Wonder - For Once In My Life
TTITLE6=The Temptations - Just My Imagination (Running Away With Me)
TTITLE7=Marvin Gaye, Kim Weston - It Takes Two
TTITLE8=The Supremes and The Four Tops - River Deep, Mountain High
TTITLE9=Commodores - Three Times A Lady
TTITLE10=The Marvelettes - Please Mr. Postman
TTITLE11=Smokey Robinson and The Miracles - The Tracks Of My Tears
TTITLE12=Jimmy Ruffin - What Becomes Of The Brokenhearted
TTITLE13=The Temptations - Papa Was A Rollin' Stone
TTITLE14=Edwin Starr - War
TTITLE15=Commodores - Brick House
TTITLE16=Four Tops - Reach Out I'll Be There
EXTD=
EXTT0=
EXTT1=
EXTT2=
EXTT3=
EXTT4=
EXTT5=
EXTT6=
EXTT7=
EXTT8=
EXTT9=
EXTT10=
EXTT11=
EXTT12=
EXTT13=
EXTT14=
EXTT15=
EXTT16=
PLAYORDER=
